<svg width="30" height="30" viewBox="0 0 30 30" fill="none" xmlns="http://www.w3.org/2000/svg">
<mask id="mask0_120_864" style="mask-type:alpha" maskUnits="userSpaceOnUse" x="0" y="0" width="30" height="30">
<rect width="30" height="29.25" fill="#D9D9D9"/>
</mask>
<g mask="url(#mask0_120_864)">
<path d="M7.31244 20.8406C8.37494 20.0484 9.56244 19.4238 10.8749 18.9668C12.1874 18.5098 13.5624 18.2812 14.9999 18.2812C16.4374 18.2812 17.8124 18.5098 19.1249 18.9668C20.4374 19.4238 21.6249 20.0484 22.6874 20.8406C23.4166 20.0078 23.9843 19.0633 24.3906 18.007C24.7968 16.9508 24.9999 15.8234 24.9999 14.625C24.9999 11.9234 24.026 9.62305 22.0781 7.72383C20.1301 5.82461 17.7708 4.875 14.9999 4.875C12.2291 4.875 9.86973 5.82461 7.92181 7.72383C5.9739 9.62305 4.99994 11.9234 4.99994 14.625C4.99994 15.8234 5.20306 16.9508 5.60931 18.007C6.01556 19.0633 6.58327 20.0078 7.31244 20.8406ZM14.9999 15.8438C13.7708 15.8438 12.7343 15.4324 11.8906 14.6098C11.0468 13.7871 10.6249 12.7766 10.6249 11.5781C10.6249 10.3797 11.0468 9.36914 11.8906 8.54648C12.7343 7.72383 13.7708 7.3125 14.9999 7.3125C16.2291 7.3125 17.2656 7.72383 18.1093 8.54648C18.9531 9.36914 19.3749 10.3797 19.3749 11.5781C19.3749 12.7766 18.9531 13.7871 18.1093 14.6098C17.2656 15.4324 16.2291 15.8438 14.9999 15.8438ZM14.9999 26.8125C13.2708 26.8125 11.6458 26.4926 10.1249 25.8527C8.60411 25.2129 7.28119 24.3445 6.15619 23.2477C5.03119 22.1508 4.14056 20.8609 3.48431 19.3781C2.82806 17.8953 2.49994 16.3109 2.49994 14.625C2.49994 12.9391 2.82806 11.3547 3.48431 9.87187C4.14056 8.38906 5.03119 7.09922 6.15619 6.00234C7.28119 4.90547 8.60411 4.03711 10.1249 3.39727C11.6458 2.75742 13.2708 2.4375 14.9999 2.4375C16.7291 2.4375 18.3541 2.75742 19.8749 3.39727C21.3958 4.03711 22.7187 4.90547 23.8437 6.00234C24.9687 7.09922 25.8593 8.38906 26.5156 9.87187C27.1718 11.3547 27.4999 12.9391 27.4999 14.625C27.4999 16.3109 27.1718 17.8953 26.5156 19.3781C25.8593 20.8609 24.9687 22.1508 23.8437 23.2477C22.7187 24.3445 21.3958 25.2129 19.8749 25.8527C18.3541 26.4926 16.7291 26.8125 14.9999 26.8125ZM14.9999 24.375C16.1041 24.375 17.1458 24.2176 18.1249 23.9027C19.1041 23.5879 19.9999 23.1359 20.8124 22.5469C19.9999 21.9578 19.1041 21.5059 18.1249 21.191C17.1458 20.8762 16.1041 20.7188 14.9999 20.7188C13.8958 20.7188 12.8541 20.8762 11.8749 21.191C10.8958 21.5059 9.99994 21.9578 9.18744 22.5469C9.99994 23.1359 10.8958 23.5879 11.8749 23.9027C12.8541 24.2176 13.8958 24.375 14.9999 24.375ZM14.9999 13.4062C15.5416 13.4062 15.9895 13.2336 16.3437 12.8883C16.6979 12.543 16.8749 12.1062 16.8749 11.5781C16.8749 11.05 16.6979 10.6133 16.3437 10.268C15.9895 9.92266 15.5416 9.75 14.9999 9.75C14.4583 9.75 14.0104 9.92266 13.6562 10.268C13.302 10.6133 13.1249 11.05 13.1249 11.5781C13.1249 12.1062 13.302 12.543 13.6562 12.8883C14.0104 13.2336 14.4583 13.4062 14.9999 13.4062Z" fill="#1C1B1F"/>
</g>
</svg>
