<svg width="41" height="41" viewBox="0 0 41 41" fill="none" xmlns="http://www.w3.org/2000/svg">
<mask id="mask0_113_214" style="mask-type:alpha" maskUnits="userSpaceOnUse" x="0" y="0" width="41" height="41">
<rect width="41" height="41" fill="#D9D9D9"/>
</mask>
<g mask="url(#mask0_113_214)">
<path d="M11.6167 22.2084L20.5 27.3334L29.3833 22.2084L22.2083 18.0657V23.9167H18.7917V18.0657L11.6167 22.2084ZM18.7917 14.1365V13.4105C17.5389 13.0403 16.5139 12.3356 15.7167 11.2964C14.9194 10.2572 14.5208 9.05421 14.5208 7.68754C14.5208 6.03615 15.1045 4.62678 16.2719 3.45942C17.4392 2.29205 18.8486 1.70837 20.5 1.70837C22.1514 1.70837 23.5608 2.29205 24.7281 3.45942C25.8955 4.62678 26.4792 6.03615 26.4792 7.68754C26.4792 9.05421 26.0806 10.2572 25.2833 11.2964C24.4861 12.3356 23.4611 13.0403 22.2083 13.4105V14.1365L34.1667 21.0125C34.7076 21.3257 35.1276 21.7457 35.4266 22.2724C35.7255 22.7992 35.875 23.3757 35.875 24.0021V27.248C35.875 27.8743 35.7255 28.4509 35.4266 28.9776C35.1276 29.5044 34.7076 29.9243 34.1667 30.2375L22.2083 37.1136C21.6674 37.4268 21.0979 37.5834 20.5 37.5834C19.9021 37.5834 19.3326 37.4268 18.7917 37.1136L6.83333 30.2375C6.29236 29.9243 5.8724 29.5044 5.57344 28.9776C5.27448 28.4509 5.125 27.8743 5.125 27.248V24.0021C5.125 23.3757 5.27448 22.7992 5.57344 22.2724C5.8724 21.7457 6.29236 21.3257 6.83333 21.0125L18.7917 14.1365ZM18.7917 30.2803L8.54167 24.3865V27.248L20.5 34.1667L32.4583 27.248V24.3865L22.2083 30.2803C21.6674 30.5934 21.0979 30.75 20.5 30.75C19.9021 30.75 19.3326 30.5934 18.7917 30.2803ZM20.5 10.25C21.2118 10.25 21.8168 10.0009 22.3151 9.50265C22.8134 9.00438 23.0625 8.39935 23.0625 7.68754C23.0625 6.97574 22.8134 6.3707 22.3151 5.87244C21.8168 5.37417 21.2118 5.12504 20.5 5.12504C19.7882 5.12504 19.1832 5.37417 18.6849 5.87244C18.1866 6.3707 17.9375 6.97574 17.9375 7.68754C17.9375 8.39935 18.1866 9.00438 18.6849 9.50265C19.1832 10.0009 19.7882 10.25 20.5 10.25Z" fill="#1C1B1F"/>
</g>
</svg>
