<svg width="43" height="41" viewBox="0 0 43 41" fill="none" xmlns="http://www.w3.org/2000/svg">
<mask id="mask0_113_208" style="mask-type:alpha" maskUnits="userSpaceOnUse" x="0" y="0" width="43" height="41">
<rect width="42.2424" height="41" fill="#D9D9D9"/>
</mask>
<g mask="url(#mask0_113_208)">
<path d="M8.80054 37.5834C7.83248 37.5834 7.00377 37.2488 6.31439 36.5797C5.62502 35.9106 5.28033 35.1063 5.28033 34.1667V13.6667C5.28033 12.7271 5.62502 11.9228 6.31439 11.2537C7.00377 10.5846 7.83248 10.25 8.80054 10.25H12.3207C12.3207 7.88685 13.1788 5.87244 14.8949 4.20681C16.611 2.54119 18.6864 1.70837 21.1212 1.70837C23.556 1.70837 25.6315 2.54119 27.3476 4.20681C29.0637 5.87244 29.9217 7.88685 29.9217 10.25H33.4419C34.41 10.25 35.2387 10.5846 35.9281 11.2537C36.6175 11.9228 36.9622 12.7271 36.9622 13.6667V34.1667C36.9622 35.1063 36.6175 35.9106 35.9281 36.5797C35.2387 37.2488 34.41 37.5834 33.4419 37.5834H8.80054ZM8.80054 34.1667H33.4419V13.6667H8.80054V34.1667ZM21.1212 23.9167C23.556 23.9167 25.6315 23.0839 27.3476 21.4183C29.0637 19.7526 29.9217 17.7382 29.9217 15.375H26.4015C26.4015 16.7987 25.8882 18.0087 24.8615 19.0052C23.8347 20.0018 22.588 20.5 21.1212 20.5C19.6545 20.5 18.4078 20.0018 17.381 19.0052C16.3543 18.0087 15.8409 16.7987 15.8409 15.375H12.3207C12.3207 17.7382 13.1788 19.7526 14.8949 21.4183C16.611 23.0839 18.6864 23.9167 21.1212 23.9167ZM15.8409 10.25H26.4015C26.4015 8.82643 25.8882 7.61636 24.8615 6.61983C23.8347 5.6233 22.588 5.12504 21.1212 5.12504C19.6545 5.12504 18.4078 5.6233 17.381 6.61983C16.3543 7.61636 15.8409 8.82643 15.8409 10.25Z" fill="#1C1B1F"/>
</g>
</svg>
