<svg width="16" height="16" viewBox="0 0 16 16" fill="none" xmlns="http://www.w3.org/2000/svg">
<g id="Regular/search" clip-path="url(#clip0_443_723)">
<path id="vector" d="M15.8046 14.8621L11.8253 10.8828C12.9097 9.5565 13.4429 7.86416 13.3145 6.15581C13.1862 4.44745 12.4061 2.85379 11.1357 1.70445C9.86528 0.555106 8.2017 -0.0619731 6.48907 -0.0191518C4.77644 0.0236694 3.14578 0.723114 1.93439 1.93451C0.722992 3.1459 0.0235473 4.77656 -0.0192739 6.48919C-0.0620951 8.20183 0.554984 9.8654 1.70432 11.1358C2.85366 12.4062 4.44733 13.1863 6.15568 13.3147C7.86404 13.443 9.55637 12.9098 10.8826 11.8254L14.862 15.8048C14.9877 15.9262 15.1561 15.9934 15.3309 15.9919C15.5057 15.9904 15.6729 15.9203 15.7965 15.7966C15.9201 15.673 15.9902 15.5058 15.9918 15.331C15.9933 15.1562 15.9261 14.9878 15.8046 14.8621ZM6.66664 12.0001C5.61181 12.0001 4.58066 11.6873 3.7036 11.1013C2.82654 10.5152 2.14295 9.68228 1.73929 8.70774C1.33562 7.7332 1.23 6.66085 1.43579 5.62628C1.64158 4.59172 2.14953 3.64141 2.89541 2.89553C3.64129 2.14965 4.5916 1.6417 5.62616 1.43591C6.66073 1.23012 7.73308 1.33574 8.70762 1.73941C9.68216 2.14308 10.5151 2.82666 11.1011 3.70372C11.6872 4.58079 12 5.61193 12 6.66677C11.9984 8.08077 11.436 9.4364 10.4361 10.4362C9.43628 11.4361 8.08064 11.9985 6.66664 12.0001Z" fill="#0C1A30"/>
</g>
<defs>
<clipPath id="clip0_443_723">
<rect width="16" height="16" fill="white"/>
</clipPath>
</defs>
</svg>
