<svg width="23" height="22" viewBox="0 0 23 22" fill="none" xmlns="http://www.w3.org/2000/svg">
<g clip-path="url(#clip0_113_192)">
<path fill-rule="evenodd" clip-rule="evenodd" d="M21.7666 3.73725C21.4971 3.42782 21.1596 3.17895 20.7781 3.00833C20.3967 2.83771 19.9807 2.74951 19.5596 2.75H4.06525L4.025 2.42825C3.94263 1.75947 3.60658 1.14284 3.08055 0.695271C2.55453 0.247705 1.8751 0.000313311 1.17108 0H0.958333C0.704167 0 0.460412 0.0965771 0.280689 0.268485C0.100967 0.440394 0 0.673552 0 0.916667C0 1.15978 0.100967 1.39294 0.280689 1.56485C0.460412 1.73676 0.704167 1.83333 0.958333 1.83333H1.17108C1.40581 1.83336 1.63236 1.91579 1.80777 2.06499C1.98318 2.21419 2.09525 2.41977 2.12271 2.64275L3.44138 13.3678C3.57827 14.4831 4.13854 15.5116 5.01583 16.258C5.89312 17.0044 7.02636 17.4167 8.20046 17.4167H18.2083C18.4625 17.4167 18.7063 17.3201 18.886 17.1482C19.0657 16.9763 19.1667 16.7431 19.1667 16.5C19.1667 16.2569 19.0657 16.0237 18.886 15.8518C18.7063 15.6799 18.4625 15.5833 18.2083 15.5833H8.20046C7.6073 15.5817 7.02918 15.4047 6.54535 15.0765C6.06153 14.7483 5.69567 14.2849 5.49796 13.75H16.9213C18.0447 13.7501 19.1325 13.3725 19.9945 12.6834C20.8565 11.9943 21.438 11.0373 21.6372 9.97975L22.3895 5.98858C22.4646 5.59259 22.4478 5.18565 22.3401 4.79658C22.2325 4.40752 22.0367 4.04587 21.7666 3.73725ZM20.5083 5.66317L19.7551 9.65433C19.6354 10.2896 19.2859 10.8643 18.7679 11.2779C18.2498 11.6915 17.5961 11.9176 16.9213 11.9167H5.19321L4.29142 4.58333H19.5596C19.7004 4.58253 19.8396 4.6114 19.9674 4.6679C20.0952 4.7244 20.2084 4.80713 20.299 4.91022C20.3895 5.01331 20.4553 5.13422 20.4914 5.26436C20.5276 5.3945 20.5334 5.53066 20.5083 5.66317ZM6.70833 22C7.76688 22 8.625 21.1792 8.625 20.1667C8.625 19.1541 7.76688 18.3333 6.70833 18.3333C5.64979 18.3333 4.79167 19.1541 4.79167 20.1667C4.79167 21.1792 5.64979 22 6.70833 22ZM18.2083 20.1667C18.2083 21.1792 17.3502 22 16.2917 22C15.2331 22 14.375 21.1792 14.375 20.1667C14.375 19.1541 15.2331 18.3333 16.2917 18.3333C17.3502 18.3333 18.2083 19.1541 18.2083 20.1667Z" fill="#0C1A30"/>
</g>
<defs>
<clipPath id="clip0_113_192">
<rect width="23" height="22" fill="white"/>
</clipPath>
</defs>
</svg>
